<?xml version="1.0" encoding="UTF-8" standalone="no"?>
<!-- Created with Inkscape (http://www.inkscape.org/) -->

<svg
   version="1.1"
   id="svg2"
   xml:space="preserve"
   width="245.75999"
   height="260.78668"
   viewBox="0 0 245.75999 260.78668"
   xmlns="http://www.w3.org/2000/svg"
   xmlns:svg="http://www.w3.org/2000/svg"><defs
     id="defs6" /><g
     id="g8"
     transform="matrix(1.3333333,0,0,-1.3333333,0,260.78667)"><g
       id="g10"
       transform="scale(0.1)"><path
         d="M 37.3516,940.75 64.25,990.129 v -47.68 h 10.2695 v 67.171 H 64.4883 l -27.25,-49.87 -26.9375,49.87 H 0 v -67.171 h 10.2813 v 47.789 z m 119.3204,0.43 c 20.637,0 36.047,15.488 36.047,34.871 0,19.449 -15.41,34.799 -36.047,34.799 -20.57,0 -35.942,-15.35 -35.942,-34.799 0,-19.383 15.372,-34.871 35.942,-34.871 m -0.031,9.742 c -14.461,0 -25.641,10.855 -25.641,25.105 0,14.321 11.18,25.183 25.641,25.183 14.531,0 25.711,-10.862 25.711,-25.183 0,-14.25 -11.18,-25.105 -25.711,-25.105 m 86.488,-8.461 h 35.012 c 14.347,0 21.968,6.168 21.968,18.68 0,10.879 -6.281,16.16 -12.879,17.668 5.04,1.66 9.418,6.14 9.418,13.941 0,10.99 -7.789,16.87 -21.82,16.87 h -31.699 z m 10.051,40.477 v 17.252 h 21.371 c 7.879,0 11.929,-2.721 11.929,-8.663 0,-5.429 -4.429,-8.589 -11.601,-8.589 z m 0,-31.04 v 21.84 h 23.922 c 8.429,0 12.91,-4.008 12.847,-10.968 -0.008,-7.309 -4.25,-10.872 -12.148,-10.872 z m 99.019,-9.449 h 10.379 v 67.171 h -10.379 z m 78.313,0.012 h 48.187 v 9.437 h -37.847 l 0.058,57.722 h -10.398 z m 102.769,0 h 52.571 v 9.437 h -42.301 v 21.84 h 30.699 v 9.18 l -30.699,0.051 v 17.221 h 42.238 v 9.43 h -52.508 z m 179.707,-0.02 h 22.774 c 24.308,0 38.629,14.278 38.629,33.497 0,19.281 -14.321,33.872 -38.629,33.792 l -22.774,-0.08 z m 10.282,9.43 v 48.469 l 12.46,-0.05 c 19.25,-0.1 28.29,-10.22 28.29,-24.372 0,-14.117 -9.04,-23.988 -28.29,-24.027 z m 101.519,-9.422 h 10.383 v 67.171 h -10.383 z m 61.84,-0.109 h 11.41 l 7.883,14.808 h 37.828 l 7.781,-14.808 h 11.18 l -37.75,69.98 z m 23.891,23.488 14.332,26.992 14.269,-26.992 z m 132.56,-24.617 c 12.71,0 23.92,6.437 30.7,15.727 v 19.371 h -10.38 v -16 c -5.07,-6.098 -12.79,-9.457 -20.35,-9.457 -14.5,0 -25.64,10.878 -25.64,25.105 0,14.313 11.01,25.183 25.5,25.183 8.17,0 15.23,-3.242 19.98,-8.581 l 7.94,6.3 c -6.58,7.381 -16.39,12.021 -27.89,12.021 -20.57,0 -35.81,-15.489 -35.81,-34.931 0,-19.379 15.38,-34.738 35.95,-34.738 m 89.29,1.238 h 10.38 v 52.078 l 41.51,-52.078 h 10.24 v 67.171 h -10.27 v -52.202 l -41.52,52.192 h -10.34 z m 155.82,-1.269 c 20.64,0 36.06,15.488 36.06,34.871 0,19.449 -15.42,34.799 -36.06,34.799 -20.56,0 -35.94,-15.35 -35.94,-34.799 0,-19.383 15.38,-34.871 35.94,-34.871 m -0.02,9.742 c -14.46,0 -25.64,10.855 -25.64,25.105 0,14.321 11.18,25.183 25.64,25.183 14.53,0 25.71,-10.862 25.71,-25.183 0,-14.25 -11.18,-25.105 -25.71,-25.105 m 118.58,-9.332 c 16.04,0.051 27.05,7.808 26.99,19.238 -0.05,10.27 -6.29,15.75 -20.56,18.973 l -9.46,2.137 c -8.82,2.019 -12.97,4.589 -13.03,9.8 -0.06,5.981 6.37,9.272 15.61,9.362 7.24,0.05 14.04,-2.241 19.96,-5.881 l 5.26,8.071 c -6.94,4.27 -16.41,7.2 -26.18,7.14 -14.81,-0.08 -25.8,-7.48 -25.74,-18.391 0.05,-9.91 6.71,-15.922 21.08,-19.191 l 8.87,-2.028 c 9.85,-2.281 13.63,-4.371 13.5,-10.019 -0.14,-6.141 -6.48,-9.711 -15.86,-9.789 -8.55,-0.071 -17.72,2.359 -24.9,6.668 l -5.61,-8.09 c 7.83,-4.949 19.16,-8.031 30.07,-8 z m 98.08,0.859 h 10.26 v 57.721 h 23.44 v 9.43 h -57.24 l 0.06,-9.43 h 23.48 z m 93.21,0 h 10.38 v 67.171 h -10.38 z m 103.87,-1.14 c 11.24,0 20.86,4.402 27.97,12.152 l -8.07,6.129 c -5.21,-5.621 -12.04,-8.629 -19.93,-8.629 -14.27,0 -25.44,10.598 -25.44,25.066 0,14.411 11.17,25.013 25.44,25.013 7.63,0 14.57,-2.981 19.68,-8.481 l 7.97,6.289 c -6.94,7.562 -16.7,11.932 -27.62,11.932 -20.31,0 -35.74,-15.26 -35.74,-34.76 0,-19.582 15.4,-34.711 35.74,-34.711 m 112.88,0.281 c 16.04,0.051 27.04,7.808 26.99,19.238 -0.05,10.27 -6.29,15.75 -20.56,18.973 l -9.47,2.137 c -8.82,2.019 -12.97,4.589 -13.02,9.8 -0.06,5.981 6.37,9.272 15.61,9.362 7.24,0.05 14.04,-2.241 19.96,-5.881 l 5.25,8.071 c -6.93,4.27 -16.4,7.2 -26.17,7.14 -14.81,-0.08 -25.8,-7.48 -25.75,-18.391 0.06,-9.91 6.71,-15.922 21.09,-19.191 l 8.87,-2.028 c 9.85,-2.281 13.63,-4.371 13.49,-10.019 -0.13,-6.141 -6.48,-9.711 -15.85,-9.789 -8.55,-0.071 -17.72,2.359 -24.91,6.668 l -5.6,-8.09 c 7.83,-4.949 19.16,-8.031 30.07,-8"
         style="fill:#235795;fill-opacity:1;fill-rule:nonzero;stroke:none"
         id="path12" /><path
         d="M 0.722656,1077.17 H 879.465 V 1955.9 H 0.722656 v -878.73"
         style="fill:#a1d628;fill-opacity:1;fill-rule:nonzero;stroke:none"
         id="path14" /><path
         d="m 475.266,1204.07 c 101.16,0 187.761,39.86 251.722,109.81 l -72.601,55.08 c -46.899,-50.46 -108.391,-77.53 -179.371,-77.53 -128.457,0 -228.938,95.21 -228.938,225.26 0,129.43 100.481,224.66 228.938,224.66 68.632,0 131.121,-26.73 177.152,-76.16 l 71.68,56.52 C 661.367,1789.69 573.535,1829 475.266,1829 c -182.75,0 -322.071,-137.21 -322.071,-312.47 0,-175.89 139.024,-312.46 322.071,-312.46"
         style="fill:#ffffff;fill-opacity:1;fill-rule:nonzero;stroke:none"
         id="path16" /><path
         d="M 0.722656,0 H 879.465 V 878.738 H 0.722656 V 0"
         style="fill:#73a6b9;fill-opacity:1;fill-rule:nonzero;stroke:none"
         id="path18" /><path
         d="m 453.742,129.871 c 144.492,0.438 243.821,70.18 243.321,172.84 -0.45,92.168 -56.79,141.391 -185.387,170.32 l -85.262,19.219 c -79.43,18.148 -116.828,41.262 -117.301,88 -0.527,53.77 57.34,83.309 140.563,84.109 65.25,0.469 126.5,-20.148 179.84,-52.808 l 47.449,72.609 C 614.383,722.801 529.035,749.359 441.074,748.859 307.695,748.09 208.836,681.109 209.363,582.922 209.836,493.949 269.676,439.98 399.105,410.609 l 79.848,-18.23 c 88.731,-20.43 122.77,-39.238 121.563,-89.969 -1.223,-55.129 -58.364,-87.219 -142.801,-87.941 -77.02,-0.578 -159.59,21.25 -224.18,59.972 l -50.41,-72.742 c 70.43,-44.469 172.34,-72.148 270.609,-71.828 h 0.008"
         style="fill:#ffffff;fill-opacity:1;fill-rule:nonzero;stroke:none"
         id="path20" /><path
         d="M 964.492,1077.17 H 1843.23 V 1955.9 H 964.492 v -878.73"
         style="fill:#4bc2a7;fill-opacity:1;fill-rule:nonzero;stroke:none"
         id="path22" /><path
         d="m 1358.13,1214.2 h 92.42 v 519.35 h 210.87 v 85.31 h -515.11 l 0.52,-85.31 h 211.3 V 1214.2"
         style="fill:#ffffff;fill-opacity:1;fill-rule:nonzero;stroke:none"
         id="path24" /><path
         d="M 964.492,0 H 1843.23 V 878.738 H 964.492 V 0"
         style="fill:#235795;fill-opacity:1;fill-rule:nonzero;stroke:none"
         id="path26" /><path
         d="m 1161.64,137.039 h 315.09 c 129.14,0 197.73,55.832 197.73,168.633 0,97.918 -56.57,145.476 -115.94,159.098 45.97,14.921 85.64,55.16 85.64,125.25 0,98.699 -70.57,151.679 -197.04,151.679 h -285.48 z m 90.45,364.883 v 154.887 h 192.46 c 71.06,0 107.52,-24.438 107.52,-77.789 0,-48.77 -39.91,-77.098 -104.51,-77.098 z m 0,-279.524 v 196.704 h 215.45 c 75.67,0 115.96,-36.141 115.44,-98.793 -0.08,-65.848 -38.27,-97.911 -109.33,-97.911 h -221.56"
         style="fill:#ffffff;fill-opacity:1;fill-rule:nonzero;stroke:none"
         id="path28" /></g></g></svg>

