<svg viewBox="0 0 768 815" xmlns="http://www.w3.org/2000/svg" xml:space="preserve" style="fill-rule:evenodd;clip-rule:evenodd;stroke-linejoin:round;stroke-miterlimit:2"><path style="fill:#fff" d="M.969.936h767.404v814.075H.969z" transform="translate(-.969 -.936)"/><path d="m3.735 101.925 2.69-4.937v4.767h1.027v-6.716H6.449l-2.725 4.987-2.694-4.987H0v6.716h1.028v-4.778l2.707 4.948Zm11.932-.043c2.063 0 3.605-1.548 3.605-3.486 0-1.945-1.542-3.48-3.605-3.48-2.057 0-3.594 1.535-3.594 3.48 0 1.938 1.537 3.486 3.594 3.486Zm-.003-.974c-1.446 0-2.564-1.085-2.564-2.51 0-1.432 1.118-2.518 2.564-2.518 1.453 0 2.571 1.086 2.571 2.518 0 1.425-1.118 2.51-2.571 2.51Zm8.649.846h3.501c1.435 0 2.197-.617 2.197-1.867 0-1.088-.628-1.616-1.288-1.767.504-.166.942-.614.942-1.394 0-1.099-.779-1.687-2.182-1.687h-3.17v6.715Zm1.005-4.047v-1.725h2.137c.788 0 1.193.272 1.193.866 0 .543-.443.859-1.16.859h-2.17Zm0 3.103v-2.183h2.392c.843 0 1.291.401 1.285 1.097-.001.73-.425 1.086-1.215 1.086h-2.462Zm9.902.945h1.038v-6.716H35.22v6.716Zm7.831-.001h4.819v-.944h-3.785l.006-5.771h-1.04v6.715Zm10.277 0h5.257v-.944h-4.23v-2.183h3.07v-.918l-3.07-.005v-1.722h4.224v-.943h-5.251v6.715Zm17.971.002h2.277c2.431 0 3.863-1.427 3.863-3.349 0-1.928-1.432-3.387-3.863-3.379l-2.277.008v6.72Zm1.028-.943v-4.846l1.246.005c1.925.01 2.829 1.022 2.829 2.437 0 1.412-.904 2.398-2.829 2.402l-1.246.002Zm10.152.942h1.038v-6.716h-1.038v6.716Zm6.184.011h1.141l.788-1.48h3.783l.778 1.48h1.118l-3.775-6.997-3.833 6.997Zm2.389-2.348 1.433-2.699 1.427 2.699h-2.86Zm13.256 2.461a3.821 3.821 0 0 0 3.07-1.572V98.37h-1.038v1.6a2.676 2.676 0 0 1-2.035.945c-1.45 0-2.564-1.087-2.564-2.51 0-1.431 1.101-2.518 2.55-2.518.817 0 1.523.324 1.998.858l.794-.63c-.658-.738-1.639-1.202-2.789-1.202-2.057 0-3.581 1.549-3.581 3.493 0 1.938 1.538 3.473 3.595 3.473Zm8.929-.124h1.038v-5.207l4.151 5.207h1.024v-6.716h-1.027v5.22l-4.152-5.219h-1.034v6.715Zm15.582.127c2.063 0 3.606-1.548 3.606-3.486 0-1.945-1.543-3.48-3.606-3.48-2.056 0-3.594 1.535-3.594 3.48 0 1.938 1.538 3.486 3.594 3.486Zm-.002-.974c-1.446 0-2.564-1.085-2.564-2.51 0-1.432 1.118-2.518 2.564-2.518 1.453 0 2.571 1.086 2.571 2.518 0 1.425-1.118 2.51-2.571 2.51Zm11.858.933c1.604-.005 2.705-.781 2.699-1.923-.005-1.027-.629-1.575-2.056-1.897l-.946-.214c-.882-.202-1.297-.459-1.303-.98-.006-.598.637-.927 1.561-.936.724-.005 1.404.224 1.996.588l.526-.807a5.07 5.07 0 0 0-2.618-.714c-1.481.008-2.58.748-2.574 1.839.005.991.671 1.592 2.108 1.919l.887.203c.985.228 1.363.437 1.35 1.002-.014.613-.648.97-1.586.978a4.926 4.926 0 0 1-2.49-.666l-.561.808c.783.495 1.916.803 3.007.8Zm9.808-.086h1.026v-5.771h2.344v-.943h-5.724l.006.943h2.348v5.771Zm9.321 0h1.038v-6.716h-1.038v6.716Zm10.387.114c1.124 0 2.086-.44 2.797-1.215l-.807-.612a2.646 2.646 0 0 1-1.993.862c-1.427 0-2.544-1.059-2.544-2.506 0-1.441 1.117-2.501 2.544-2.501.763 0 1.457.298 1.968.848l.797-.629c-.694-.756-1.67-1.193-2.762-1.193-2.031 0-3.574 1.526-3.574 3.476 0 1.958 1.54 3.47 3.574 3.47Zm11.288-.028c1.604-.005 2.704-.781 2.699-1.923-.005-1.027-.629-1.575-2.056-1.897l-.947-.214c-.882-.202-1.297-.459-1.302-.98-.006-.598.637-.927 1.561-.936.724-.005 1.404.224 1.996.588l.525-.807a5.063 5.063 0 0 0-2.617-.714c-1.481.008-2.58.748-2.575 1.839.006.991.671 1.592 2.109 1.919l.887.203c.985.228 1.363.437 1.349 1.002-.013.613-.648.97-1.585.978a4.932 4.932 0 0 1-2.491-.666l-.56.808c.783.495 1.916.803 3.007.8Z" style="fill:#005b96;fill-rule:nonzero" transform="matrix(3.85137 0 0 3.85137 28.09 30.028)"/><path style="fill:#add13f;fill-rule:nonzero" d="M.072.41h87.874v87.873H.072z" transform="matrix(3.85137 0 0 3.85137 28.09 30.028)"/><path d="M47.526 75.593c10.116 0 18.776-3.985 25.172-10.98l-7.26-5.508c-4.69 5.046-10.839 7.753-17.937 7.753-12.846 0-22.894-9.522-22.894-22.526 0-12.943 10.048-22.466 22.894-22.466 6.863 0 13.112 2.673 17.715 7.616l7.168-5.653c-6.248-6.797-15.031-10.728-24.858-10.728-18.275 0-32.207 13.721-32.207 31.247 0 17.588 13.902 31.245 32.207 31.245Z" style="fill:#fff;fill-rule:nonzero" transform="matrix(3.85137 0 0 3.85137 28.09 30.028)"/><path style="fill:#72a5b9;fill-rule:nonzero" d="M.072 108.126h87.874V196H.072z" transform="matrix(3.85137 0 0 3.85137 28.09 30.028)"/><path d="M45.374 183.013c14.449-.044 24.382-7.018 24.332-17.284-.045-9.217-5.679-14.139-18.539-17.032l-8.526-1.922c-7.943-1.815-11.683-4.126-11.73-8.8-.053-5.377 5.734-8.331 14.056-8.41 6.525-.048 12.65 2.014 17.984 5.28l4.745-7.261c-6.258-3.864-14.793-6.52-23.589-6.47-13.338.077-23.224 6.775-23.171 16.594.047 8.897 6.031 14.294 18.974 17.231l7.985 1.823c8.873 2.043 12.277 3.924 12.156 8.997-.122 5.513-5.836 8.722-14.28 8.794-7.702.058-15.959-2.125-22.418-5.997l-5.041 7.274c7.043 4.447 17.234 7.215 27.061 7.183h.001Z" style="fill:#fff;fill-rule:nonzero" transform="matrix(3.85137 0 0 3.85137 28.09 30.028)"/><path style="fill:#29bcab;fill-rule:nonzero" d="M96.449.41h87.874v87.873H96.449z" transform="matrix(3.85137 0 0 3.85137 28.09 30.028)"/><path d="M135.813 74.58h9.242V22.645h21.087v-8.531h-51.511l.052 8.531h21.13V74.58Z" style="fill:#fff;fill-rule:nonzero" transform="matrix(3.85137 0 0 3.85137 28.09 30.028)"/><path style="fill:#005b96;fill-rule:nonzero" d="M96.449 108.126h87.874V196H96.449z" transform="matrix(3.85137 0 0 3.85137 28.09 30.028)"/><path d="M116.164 182.296h31.509c12.914 0 19.773-5.583 19.773-16.863 0-9.792-5.657-14.548-11.594-15.91 4.597-1.492 8.564-5.516 8.564-12.525 0-9.87-7.057-15.168-19.704-15.168h-28.548v60.466Zm9.045-36.488v-15.489h19.246c7.106 0 10.752 2.444 10.752 7.779 0 4.877-3.991 7.71-10.451 7.71h-19.547Zm0 27.952v-19.67h21.545c7.567 0 11.596 3.614 11.544 9.879-.008 6.585-3.827 9.791-10.933 9.791h-22.156Z" style="fill:#fff;fill-rule:nonzero" transform="matrix(3.85137 0 0 3.85137 28.09 30.028)"/></svg>